<svg width="32" height="32" viewBox="0 0 32 32" fill="none" xmlns="http://www.w3.org/2000/svg">
  <!-- 背景圆形 -->
  <circle cx="16" cy="16" r="15" fill="url(#gradient)" stroke="#ffffff" stroke-width="2"/>
  
  <!-- 渐变定义 -->
  <defs>
    <linearGradient id="gradient" x1="0%" y1="0%" x2="100%" y2="100%">
      <stop offset="0%" style="stop-color:#667eea;stop-opacity:1" />
      <stop offset="50%" style="stop-color:#764ba2;stop-opacity:1" />
      <stop offset="100%" style="stop-color:#f093fb;stop-opacity:1" />
    </linearGradient>
    
    <linearGradient id="imageGradient" x1="0%" y1="0%" x2="100%" y2="100%">
      <stop offset="0%" style="stop-color:#ffffff;stop-opacity:0.9" />
      <stop offset="100%" style="stop-color:#ffffff;stop-opacity:0.7" />
    </linearGradient>
    
    <linearGradient id="flowGradient" x1="0%" y1="0%" x2="100%" y2="0%">
      <stop offset="0%" style="stop-color:#ffffff;stop-opacity:0.3" />
      <stop offset="50%" style="stop-color:#ffffff;stop-opacity:0.8" />
      <stop offset="100%" style="stop-color:#ffffff;stop-opacity:0.3" />
    </linearGradient>
  </defs>
  
  <!-- 图片框架 -->
  <rect x="8" y="9" width="16" height="12" rx="2" ry="2" fill="url(#imageGradient)" stroke="#ffffff" stroke-width="1.5"/>
  
  <!-- 图片内容 - 山峰 -->
  <path d="M10 18 L13 15 L16 17 L19 14 L22 16 L22 19 L10 19 Z" fill="#667eea" opacity="0.6"/>
  
  <!-- 图片内容 - 太阳 -->
  <circle cx="19" cy="12" r="2" fill="#f093fb" opacity="0.7"/>
  
  <!-- 流动效果线条 -->
  <path d="M6 24 Q16 20 26 24" stroke="url(#flowGradient)" stroke-width="2" fill="none" stroke-linecap="round">
    <animate attributeName="d" 
             values="M6 24 Q16 20 26 24;M6 24 Q16 22 26 24;M6 24 Q16 20 26 24" 
             dur="2s" 
             repeatCount="indefinite"/>
  </path>
  
  <path d="M4 26 Q16 22 28 26" stroke="url(#flowGradient)" stroke-width="1.5" fill="none" stroke-linecap="round" opacity="0.7">
    <animate attributeName="d" 
             values="M4 26 Q16 22 28 26;M4 26 Q16 24 28 26;M4 26 Q16 22 28 26" 
             dur="2.5s" 
             repeatCount="indefinite"/>
  </path>
  
  <!-- 压缩指示器 -->
  <g opacity="0.8">
    <path d="M24 6 L26 8 L24 10" stroke="#ffffff" stroke-width="1.5" fill="none" stroke-linecap="round"/>
    <path d="M22 8 L26 8" stroke="#ffffff" stroke-width="1.5" stroke-linecap="round"/>
  </g>
</svg>
