<svg width="32" height="32" viewBox="0 0 32 32" fill="none" xmlns="http://www.w3.org/2000/svg">
  <!-- 背景圆形 -->
  <circle cx="16" cy="16" r="16" fill="url(#gradient)"/>
  
  <!-- 图片图标 -->
  <rect x="7" y="9" width="10" height="8" rx="1" fill="white" opacity="0.9"/>
  <circle cx="9" cy="11.5" r="1" fill="#3B82F6"/>
  <path d="M7 15L9.5 12.5L11.5 14.5L15 11L17 13V17H7V15Z" fill="#3B82F6" opacity="0.7"/>
  
  <!-- 压缩箭头 -->
  <path d="M19 10L22 13L19 16" stroke="white" stroke-width="1.5" stroke-linecap="round" stroke-linejoin="round" fill="none"/>
  <path d="M19 13H25" stroke="white" stroke-width="1.5" stroke-linecap="round" fill="none"/>
  
  <!-- 压缩后的小图片 -->
  <rect x="23" y="11" width="6" height="4" rx="0.5" fill="white" opacity="0.9"/>
  <circle cx="24" cy="12" r="0.5" fill="#10B981"/>
  <path d="M23 14L24 13L25 13.5L27 12L29 13V15H23V14Z" fill="#10B981" opacity="0.7"/>
  
  <!-- 渐变定义 -->
  <defs>
    <linearGradient id="gradient" x1="0%" y1="0%" x2="100%" y2="100%">
      <stop offset="0%" style="stop-color:#3B82F6;stop-opacity:1" />
      <stop offset="100%" style="stop-color:#1D4ED8;stop-opacity:1" />
    </linearGradient>
  </defs>
</svg>
